<svg viewBox="0 0 631 508" xmlns="http://www.w3.org/2000/svg"><g fill="none" fill-rule="evenodd"><path d="M593.37 472.653V57.271" stroke="#B4D1DB" stroke-width="1.3"/><path d="M485.784 507.653V177.271M378.198 490.653V87.271M270.611 459.653V101.271M163.025 365.384V149.27M55.44 444.653V181.271" stroke="#B4D1DB"/><g stroke="#B4D1DB"><path d="M232 432.04h266.759M0 324.453h630.759M0 216.867h614.759M208 109.28h365.759"/></g><path d="M269.287 2.993L271.82.46" stroke="#B0BEC5" stroke-width="1.3"/><path d="M612.196 108.751c0 14.966-12.132 27.098-27.098 27.098S558 123.717 558 108.751s12.132-27.098 27.098-27.098 27.098 12.132 27.098 27.098z" stroke="#00E5FF" stroke-width="1.3"/><path d="M486.1 324.855l2.533-2.532" stroke="#B0BEC5" stroke-width="1.3"/><path d="M491.2 319.757l98.796-98.796" stroke="#B0BEC5" stroke-width="1.3" stroke-dasharray="9,6"/><path d="M591.28 219.677l2.531-2.532" stroke="#B0BEC5" stroke-width="1.3"/><path stroke="#00E5FF" stroke-width="1.3" d="M111.802 449.3l59.331-9.102-37.549-46.831z"/><path d="M54.779 253.169v-71.724M91.2 216.746H19.478" stroke="#2196F3" stroke-width="1.3"/><path d="M54.983 145.143c39.612 0 71.724 32.111 71.724 71.724 0 39.612-32.112 71.724-71.724 71.724M593.006 431.761l-107.664-106.74" stroke="#76BE5E" stroke-width="1.3"/><path fill="#76BE5E" d="M208.82 324.634l-31.226-54.085 31.226-54.085h62.452l31.226 54.085-31.226 54.085zM317.336 387.408l-31.226-54.085 31.226-54.085h62.452l31.226 54.085-31.226 54.085z"/><path stroke="#B0BEC5" stroke-width="1.3" d="M322.802 260.71h-5l-2.5-4.33"/><path d="M312.193 250.995l-21.096-36.54" stroke="#B0BEC5" stroke-width="1.3" stroke-dasharray="9,6"/><path stroke="#B0BEC5" stroke-width="1.3" d="M289.542 211.762l-2.5-4.33 2.5-4.33"/><path d="M292.65 197.718l21.098-36.541" stroke="#B0BEC5" stroke-width="1.3" stroke-dasharray="9,6"/><path stroke="#B0BEC5" stroke-width="1.3" d="M315.302 158.485l2.5-4.33h5"/><path d="M329.02 154.155h42.193" stroke="#B0BEC5" stroke-width="1.3" stroke-dasharray="9,6"/><path stroke="#B0BEC5" stroke-width="1.3" d="M374.322 154.155h5l2.5 4.33"/><path d="M384.93 163.87l21.097 36.539" stroke="#FFF" stroke-width="1.3" stroke-dasharray="8.883000000000001,6.218"/><path stroke="#B0BEC5" stroke-width="1.3" d="M407.582 203.102l2.5 4.33-2.5 4.33"/><path d="M404.472 217.147l-21.096 36.54" stroke="#FFF" stroke-width="1.3" stroke-dasharray="8.883000000000001,6.218"/><path stroke="#B0BEC5" stroke-width="1.3" d="M381.822 256.38l-2.5 4.33h-5"/><path d="M368.104 260.71H325.91" stroke="#B0BEC5" stroke-width="1.3" stroke-dasharray="9,6"/><path fill="#455A64" d="M373.848 261.516l-31.226-54.084 31.226-54.085H436.3l31.226 54.085-31.226 54.084z"/></g></svg>
